<?xml version="1.0" encoding="UTF-8" standalone="no"?>
<!DOCTYPE svg PUBLIC "-//W3C//DTD SVG 1.1//EN" "http://www.w3.org/Graphics/SVG/1.1/DTD/svg11.dtd">
<svg width="100%" height="100%" viewBox="0 0 1194 186" version="1.1" xmlns="http://www.w3.org/2000/svg" xmlns:xlink="http://www.w3.org/1999/xlink" xml:space="preserve" xmlns:serif="http://www.serif.com/" style="fill-rule:evenodd;clip-rule:evenodd;stroke-miterlimit:10;">
    <g transform="matrix(1,0,0,1,-100.105,-302.009)">
        <g opacity="0.8">
            <g transform="matrix(1,0,0,1,100.105,302.509)">
                <path d="M0,0L1193.89,0" style="fill:none;fill-rule:nonzero;stroke:rgb(229,236,245);stroke-width:1px;"/>
            </g>
            <g transform="matrix(1,0,0,1,100.105,348.509)">
                <path d="M0,0L1193.89,0" style="fill:none;fill-rule:nonzero;stroke:rgb(229,236,245);stroke-width:1px;"/>
            </g>
            <g transform="matrix(1,0,0,1,163,321)">
                <path d="M96,5C96,2.24 93.76,0 91,0L5,0C2.24,0 0,2.24 0,5C0,7.76 2.24,10 5,10L91,10C93.76,10 96,7.76 96,5Z" style="fill:rgb(229,236,245);"/>
            </g>
            <g transform="matrix(1,0,0,1,313,321)">
                <path d="M54,5C54,2.24 51.76,0 49,0L5,0C2.24,0 0,2.24 0,5C0,7.76 2.24,10 5,10L49,10C51.76,10 54,7.76 54,5Z" style="fill:rgb(229,236,245);"/>
            </g>
            <g transform="matrix(1,0,0,1,501,321)">
                <path d="M427,5C427,2.24 424.76,0 422,0L5,0C2.24,0 0,2.24 0,5C0,7.76 2.24,10 5,10L422,10C424.76,10 427,7.76 427,5Z" style="fill:rgb(229,236,245);"/>
            </g>
            <g transform="matrix(1,0,0,1,992,321)">
                <path d="M83,5C83,2.24 80.76,0 78,0L5,0C2.24,0 0,2.24 0,5C0,7.76 2.24,10 5,10L78,10C80.76,10 83,7.76 83,5Z" style="fill:rgb(229,236,245);"/>
            </g>
            <g transform="matrix(1,0,0,1,163,367)">
                <path d="M96,5C96,2.24 93.76,0 91,0L5,0C2.24,0 0,2.24 0,5C0,7.76 2.24,10 5,10L91,10C93.76,10 96,7.76 96,5Z" style="fill:rgb(229,236,245);"/>
            </g>
            <g transform="matrix(1,0,0,1,313,367)">
                <path d="M54,5C54,2.24 51.76,0 49,0L5,0C2.24,0 0,2.24 0,5C0,7.76 2.24,10 5,10L49,10C51.76,10 54,7.76 54,5Z" style="fill:rgb(229,236,245);"/>
            </g>
            <g transform="matrix(1,0,0,1,501,367)">
                <path d="M427,5C427,2.24 424.76,0 422,0L5,0C2.24,0 0,2.24 0,5C0,7.76 2.24,10 5,10L422,10C424.76,10 427,7.76 427,5Z" style="fill:rgb(229,236,245);"/>
            </g>
            <g transform="matrix(1,0,0,1,992,367)">
                <path d="M83,5C83,2.24 80.76,0 78,0L5,0C2.24,0 0,2.24 0,5C0,7.76 2.24,10 5,10L78,10C80.76,10 83,7.76 83,5Z" style="fill:rgb(229,236,245);"/>
            </g>
        </g>
    </g>
</svg>
